HIERARCHY
ROOT Hips
{
	OFFSET 0.000000 0.000000 0.000000
	CHANNELS 6 Xposition Yposition Zposition Xrotation Yrotation Zrotation
	JOINT LeftUpLeg_virtual
	{
		OFFSET 0.000000 0.000000 0.000000
		CHANNELS 3 Xrotation Yrotation Zrotation
		JOINT LeftUpLeg
		{
			OFFSET 10.205400 -3.823500 0.155100
			CHANNELS 3 Xrotation Yrotation Zrotation
			JOINT LeftLeg
			{
				OFFSET 0.708757 -12.982077 0.567790
				CHANNELS 3 Xrotation Yrotation Zrotation
				JOINT LeftFoot
				{
					OFFSET -0.708756 -10.717838 -2.184338
					CHANNELS 3 Xrotation Yrotation Zrotation
					JOINT LeftToeBase
					{
						OFFSET 0.108149 -7.191104 7.560241
						CHANNELS 3 Xrotation Yrotation Zrotation
						JOINT LeftToe_End
						{
							OFFSET 0.070230 0.081724 4.490308
							CHANNELS 3 Xrotation Yrotation Zrotation
							End Site
							{
								OFFSET 0 0 0
							}
						}
					}
				}
			}
		}
	}
	JOINT RightUpLeg_virtual
	{
		OFFSET 0.000000 0.000000 0.000000
		CHANNELS 3 Xrotation Yrotation Zrotation
		JOINT RightUpLeg
		{
			OFFSET -10.205400 -3.823500 0.005500
			CHANNELS 3 Xrotation Yrotation Zrotation
			JOINT RightLeg
			{
				OFFSET -0.708756 -12.982134 0.610632
				CHANNELS 3 Xrotation Yrotation Zrotation
				JOINT RightFoot
				{
					OFFSET 0.708754 -10.717769 -1.945823
					CHANNELS 3 Xrotation Yrotation Zrotation
					JOINT RightToeBase
					{
						OFFSET -0.108140 -7.191069 7.372968
						CHANNELS 3 Xrotation Yrotation Zrotation
						JOINT RightToe_End
						{
							OFFSET -0.070227 0.081735 4.479403
							CHANNELS 3 Xrotation Yrotation Zrotation
							End Site
							{
								OFFSET 0 0 0
							}
						}
					}
				}
			}
		}
	}
	JOINT Spine_virtual
	{
		OFFSET 0.000000 0.000000 0.000000
		CHANNELS 3 Xrotation Yrotation Zrotation
		JOINT Spine
		{
			OFFSET 0.000000 6.876099 0.125700
			CHANNELS 3 Xrotation Yrotation Zrotation
			JOINT Spine1
			{
				OFFSET 0.000000 5.730043 0.104720
				CHANNELS 3 Xrotation Yrotation Zrotation
				JOINT Spine1_split
				{
					OFFSET 0.000000 5.730043 0.104720
					CHANNELS 3 Xrotation Yrotation Zrotation
					JOINT Spine2
					{
						OFFSET 0.000000 5.730043 0.104720
						CHANNELS 3 Xrotation Yrotation Zrotation
						JOINT Neck_virtual
						{
							OFFSET 0.000000 0.000000 0.000000
							CHANNELS 3 Xrotation Yrotation Zrotation
							JOINT Neck
							{
								OFFSET 0.000000 10.314075 0.188496
								CHANNELS 3 Xrotation Yrotation Zrotation
								JOINT Head
								{
									OFFSET 0.000000 7.643700 -2.377400
									CHANNELS 3 Xrotation Yrotation Zrotation
									JOINT HeadTop_End
									{
										OFFSET 0.000000 43.788605 -13.619600
										CHANNELS 3 Xrotation Yrotation Zrotation
										End Site
										{
											OFFSET 0 0 0
										}
									}
								}
							}
						}
						JOINT LeftShoulder_virtual
						{
							OFFSET 0.000000 0.000000 0.000000
							CHANNELS 3 Xrotation Yrotation Zrotation
							JOINT LeftShoulder
							{
								OFFSET 2.196100 4.412489 0.087492
								CHANNELS 3 Xrotation Yrotation Zrotation
								JOINT LeftShoulder_split
								{
									OFFSET 2.196100 4.412489 0.087492
									CHANNELS 3 Xrotation Yrotation Zrotation
									JOINT LeftArm
									{
										OFFSET 8.771219 -2.981674 -0.026999
										CHANNELS 3 Xrotation Yrotation Zrotation
										JOINT LeftForeArm
										{
											OFFSET 8.512804 0.000000 -0.000000
											CHANNELS 3 Xrotation Yrotation Zrotation
											JOINT LeftHand
											{
												OFFSET 18.484802 0.000000 -0.000000
												CHANNELS 3 Xrotation Yrotation Zrotation
												End Site
												{
													OFFSET 0 0 0
												}
											}
										}
									}
								}
							}
						}
						JOINT RightShoulder_virtual
						{
							OFFSET 0.000000 0.000000 0.000000
							CHANNELS 3 Xrotation Yrotation Zrotation
							JOINT RightShoulder
							{
								OFFSET -2.196100 4.412496 0.070690
								CHANNELS 3 Xrotation Yrotation Zrotation
								JOINT RightShoulder_split
								{
									OFFSET -2.196100 4.412496 0.070690
									CHANNELS 3 Xrotation Yrotation Zrotation
									JOINT RightArm
									{
										OFFSET -8.771282 -2.981682 -0.094208
										CHANNELS 3 Xrotation Yrotation Zrotation
										JOINT RightForeArm
										{
											OFFSET -8.494598 0.000000 0.000000
											CHANNELS 3 Xrotation Yrotation Zrotation
											JOINT RightHand
											{
												OFFSET -18.483803 0.000000 0.000001
												CHANNELS 3 Xrotation Yrotation Zrotation
												End Site
												{
													OFFSET 0 0 0
												}
											}
										}
									}
								}
							}
						}
					}
				}
			}
		}
	}
}
MOTION
Frames: 8
Frame Time: 0.03333333
-0.225000 29.173477 0.443155 0.000000 0.000000 0.000000 -1.985597 -13.467105 -0.863614 -31.881233 13.986712 13.164349 53.452196 3.759080 12.326037 -25.148471 4.670931 -15.073416 -2.540271 0.154482 -0.139855 0.000000 0.000000 0.000000 -2.219274 -11.760132 -0.558495 -24.766928 -21.242319 -11.323274 50.610425 0.578183 -12.595390 -27.876285 -2.786919 13.484508 0.702700 -0.493021 -1.522891 0.000000 0.000000 0.000000 -1.369992 -15.764133 -0.766490 3.622532 0.304270 0.834820 1.501943 1.411433 0.059770 2.489517 -0.561662 -0.582247 0.000000 0.000000 0.000000 0.600396 1.252603 0.171405 1.062817 -0.332706 4.322615 10.913991 12.509918 -3.431359 0.000000 0.000000 0.000000 1.675271 1.173842 -0.491484 0.667275 -0.135581 16.841927 1.776860 1.618803 -2.372837 -53.408907 -50.733812 -50.500838 -3.255622 -59.734505 -3.209037 0.000000 0.000000 0.000000 1.294521 1.520855 0.491034 0.517364 -1.946879 1.551990 -0.385542 2.369939 -0.189396 -113.934481 75.602804 108.496039 -2.638136 25.246445 1.292376 0.000000 0.000000 0.000000 
-0.192965 29.145884 0.384974 0.000000 0.000000 0.000000 -1.900313 -13.542009 -0.868013 -31.868095 13.825183 13.182452 53.276381 4.053440 12.273361 -25.353061 4.728651 -14.927035 -2.113919 0.186511 -0.421583 0.000000 0.000000 0.000000 -2.158435 -11.832853 -0.523265 -24.457289 -21.234479 -11.325571 50.517783 0.389200 -12.313356 -27.920012 -2.871882 13.290109 0.808987 -0.458007 -1.546251 0.000000 0.000000 0.000000 -1.701655 -16.039320 -0.911024 3.429127 0.350110 0.845894 1.207805 1.422794 0.115583 1.929646 -0.569476 -0.347983 0.000000 0.000000 0.000000 0.838253 1.269314 0.173955 0.970869 -0.454663 4.470382 11.668726 12.672772 -3.797753 0.000000 0.000000 0.000000 1.682263 1.196352 -0.399623 0.577592 0.144353 16.736187 2.096585 1.367155 -2.558594 -51.214282 -50.166018 -49.956769 -2.480748 -59.675151 -2.508425 0.000000 0.000000 0.000000 1.325876 1.495799 0.468238 0.425329 -2.326907 1.079625 0.465321 2.412441 -0.391320 -111.692533 75.922245 106.154056 -2.390988 25.888840 1.196670 0.000000 0.000000 0.000000 
-0.112511 29.097549 0.305546 0.000000 0.000000 0.000000 -1.812444 -13.829957 -0.875588 -31.830741 13.533677 13.044515 53.342804 4.488250 12.182947 -25.457630 4.917942 -15.303187 -1.602810 0.232382 -0.660712 0.000000 0.000000 0.000000 -2.148148 -12.222542 -0.560778 -24.451457 -21.197492 -11.364236 50.715271 0.249053 -11.993332 -27.663738 -2.949768 13.255491 0.434998 -0.362803 -1.606409 0.000000 0.000000 0.000000 -1.898558 -16.772096 -1.013494 3.175751 0.624707 0.954414 0.996520 1.660994 0.299287 1.693851 -1.095549 0.122229 0.000000 0.000000 0.000000 1.096191 1.516588 0.225904 0.650564 -0.480629 4.792349 12.113831 13.348803 -4.529473 0.000000 0.000000 0.000000 1.673056 1.467154 -0.177734 0.387038 0.341507 16.393882 2.334049 1.100385 -2.193313 -48.502218 -50.117128 -49.072321 -2.151518 -60.111464 -2.037942 0.000000 0.000000 0.000000 1.459338 1.666743 0.466593 0.286795 -2.395948 0.271558 1.178033 2.203376 -0.354911 -111.556360 76.651614 105.482675 -2.044568 27.358615 1.069941 0.000000 0.000000 0.000000 
0.026629 29.042006 0.201464 0.000000 0.000000 0.000000 -1.738772 -14.248064 -0.860875 -31.759813 13.170147 12.685611 53.647598 5.031328 12.049833 -25.460577 5.218054 -16.009441 -1.255963 0.273055 -0.753652 0.000000 0.000000 0.000000 -2.110346 -12.996090 -0.609450 -24.758123 -21.016507 -11.442603 51.108465 0.140262 -11.724200 -27.288354 -2.970463 13.226522 -0.116109 -0.251899 -1.594852 0.000000 0.000000 0.000000 -1.906931 -17.806742 -1.035652 2.925813 1.060483 1.241943 1.037699 2.052812 0.618446 2.100745 -2.251613 0.702017 0.000000 0.000000 0.000000 1.416036 1.928540 0.390795 0.119176 -0.367124 5.113714 12.106603 14.473179 -5.527674 0.000000 0.000000 0.000000 1.671488 1.903153 0.167641 0.157883 0.284178 15.937072 2.370275 1.154989 -1.759714 -45.957013 -50.370798 -47.922349 -2.227523 -60.486161 -1.781477 0.000000 0.000000 0.000000 1.712898 1.986045 0.554769 0.152529 -2.062923 -0.652252 1.638499 1.690519 -0.171876 -113.851044 77.570663 106.750782 -1.698592 28.989734 0.895588 0.000000 0.000000 0.000000 
0.244545 28.975660 0.087793 0.000000 0.000000 0.000000 -1.711678 -14.746553 -0.791454 -31.570384 12.852345 12.044437 54.031181 5.673769 11.814623 -25.444908 5.603102 -16.638189 -1.177717 0.307588 -0.713700 0.000000 0.000000 0.000000 -2.089662 -13.978994 -0.636267 -25.365118 -20.609780 -11.600900 51.721799 -0.023794 -11.558330 -26.797836 -2.942284 13.007583 -0.235467 -0.153977 -1.416939 0.000000 0.000000 0.000000 -1.695175 -18.783536 -0.971402 2.748093 1.493524 1.724969 1.330555 2.449885 1.042886 2.421947 -3.174394 0.786111 0.000000 0.000000 0.000000 1.774296 2.332910 0.707753 -0.585786 -0.091126 5.280947 11.725562 15.869431 -6.608803 0.000000 0.000000 0.000000 1.697747 2.338586 0.618068 -0.081514 -0.098524 15.471849 1.996925 1.564074 -1.607338 -43.787930 -50.566551 -46.621929 -2.592886 -60.263374 -1.673092 0.000000 0.000000 0.000000 2.033631 2.344696 0.789543 0.034296 -1.378240 -1.545919 1.985210 0.860499 0.121872 -118.656259 78.230637 110.011316 -1.496925 30.251113 0.722280 0.000000 0.000000 0.000000 
0.535741 28.900612 -0.017305 0.000000 0.000000 0.000000 -1.732186 -15.332880 -0.639436 -31.293779 12.608909 11.134416 54.328564 6.340871 11.446418 -25.456335 6.026006 -16.944147 -1.254532 0.348239 -0.662229 0.000000 0.000000 0.000000 -2.025018 -14.983842 -0.574240 -26.472732 -19.988306 -11.975945 52.645493 -0.267245 -11.513497 -25.999752 -2.908335 12.737647 0.071387 -0.093390 -1.090092 0.000000 0.000000 0.000000 -1.380895 -19.591008 -0.873215 2.670425 1.724269 2.355378 1.807224 2.686061 1.517311 2.745733 -3.817432 0.798622 0.000000 0.000000 0.000000 2.159403 2.539514 1.144828 -1.371491 0.274349 5.213021 11.190425 17.265012 -7.462545 0.000000 0.000000 0.000000 1.817656 2.586589 1.119782 -0.330399 -0.684144 15.220339 1.776410 2.324964 -1.685363 -42.543278 -50.830322 -45.866506 -2.996373 -59.408302 -1.597513 0.000000 0.000000 0.000000 2.376616 2.584167 1.169300 -0.070551 -0.560481 -2.291793 2.184125 0.160169 0.467570 -123.711337 78.157581 113.288789 -1.524935 30.800881 0.570761 0.000000 0.000000 0.000000 
0.863665 28.829861 -0.108479 0.000000 0.000000 0.000000 -1.795292 -15.946914 -0.446369 -30.971513 12.382560 10.135676 54.498151 6.889177 10.997286 -25.432387 6.373819 -16.867224 -1.271684 0.398704 -0.698132 0.000000 0.000000 0.000000 -1.931732 -15.731324 -0.453765 -28.022518 -19.239280 -12.666955 53.763230 -0.423263 -11.613717 -24.777689 -2.877184 12.876904 0.350762 -0.091470 -0.800211 0.000000 0.000000 0.000000 -1.105054 -20.159384 -0.828137 2.683379 1.617594 3.001363 2.361651 2.612648 1.941654 2.540574 -3.592833 0.403464 0.000000 0.000000 0.000000 2.536957 2.436515 1.596880 -1.919967 0.623545 4.999550 10.923641 18.192748 -7.633303 0.000000 0.000000 0.000000 2.055848 2.508936 1.595271 -0.611085 -1.124249 15.268075 1.537338 2.936640 -2.191285 -42.263646 -51.485645 -46.092750 -2.989090 -58.150407 -1.293916 0.000000 0.000000 0.000000 2.646937 2.525980 1.601905 -0.176726 0.047079 -2.836901 2.334065 -0.098531 0.741309 -126.794402 77.466448 115.025618 -1.738644 30.673874 0.411178 0.000000 0.000000 0.000000 
1.194290 28.773293 -0.159420 0.000000 0.000000 0.000000 -1.891918 -16.464176 -0.311605 -30.607587 12.136189 9.216044 54.540314 7.175129 10.484810 -25.504652 6.510685 -16.390639 -1.106442 0.450326 -0.828990 0.000000 0.000000 0.000000 -1.842662 -16.015054 -0.386299 -29.619952 -18.635888 -13.531541 54.795227 -0.463540 -11.879098 -23.327647 -2.885457 13.575450 0.402254 -0.127315 -0.703095 0.000000 0.000000 0.000000 -1.001037 -20.283784 -0.995281 2.757691 1.123734 3.479891 2.816037 2.153766 2.202566 2.136968 -2.761982 -0.347380 0.000000 0.000000 0.000000 2.824412 1.933708 1.916610 -1.935231 0.813450 4.807007 11.220762 18.032044 -6.637527 0.000000 0.000000 0.000000 2.383495 2.021561 1.930997 -0.969497 -1.214660 15.795470 1.227927 3.350344 -2.723894 -42.614496 -52.851655 -47.202973 -2.531963 -56.697441 -0.761872 0.000000 0.000000 0.000000 2.828302 2.072245 1.948925 -0.304365 0.234864 -3.209390 2.539117 -0.073977 0.884002 -126.861912 76.323416 114.763980 -2.069526 30.150729 0.215173 0.000000 0.000000 0.000000 
